<?xml version="1.0" standalone="no"?><!DOCTYPE svg PUBLIC "-//W3C//DTD SVG 1.1//EN" "http://www.w3.org/Graphics/SVG/1.1/DTD/svg11.dtd"><svg t="1482237876179" class="icon" style="" viewBox="0 0 1044 1024" version="1.1" xmlns="http://www.w3.org/2000/svg" p-id="1017" xmlns:xlink="http://www.w3.org/1999/xlink" width="203.90625" height="200"><defs><style type="text/css"></style></defs><path d="M1042.837736 502.339623C1042.837736 502.339623 1003.152906 502.339623 1003.152906 502.339623 1003.152906 502.339623 560.301887 502.339623 560.301887 502.339623 560.301887 502.339623 521.660377 502.339623 521.660377 502.339623 521.660377 502.339623 521.660377 463.698113 521.660377 463.698113 521.660377 463.698113 521.660377 41.153208 521.660377 41.153208 521.660377 41.153208 521.660377 1.468377 521.660377 1.468377 521.660377 1.468377 521.660377 0 521.660377 0 521.660377 0 560.301887 0 560.301887 0 560.301887 0 560.301887 0.483019 560.301887 0.483019 818.156679 5.487094 1026.956075 208.37434 1041.852377 463.698113 1041.852377 463.698113 1043.320755 463.698113 1043.320755 463.698113 1043.320755 463.698113 1043.320755 502.339623 1043.320755 502.339623 1043.320755 502.339623 1042.837736 502.339623 1042.837736 502.339623ZM560.301887 40.167849C560.301887 40.167849 560.301887 463.698113 560.301887 463.698113 560.301887 463.698113 1002.167547 463.698113 1002.167547 463.698113 987.348528 230.303396 796.246943 45.152604 560.301887 40.167849ZM966.037736 540.981132C966.037736 540.981132 966.037736 540.981132 966.037736 540.981132 966.037736 540.981132 966.037736 540.981132 966.037736 540.981132 966.037736 540.981132 966.037736 579.622642 966.037736 579.622642 966.037736 579.622642 964.08634 579.622642 964.08634 579.622642 962.907774 594.499623 960.975698 609.125434 958.464 623.596679 958.309434 624.485434 958.21283 625.374189 958.058264 626.262943 955.604528 640.019321 952.493887 653.524528 948.880906 666.836528 948.47517 668.401509 948.127396 669.985811 947.683019 671.531472 944.128 684.225208 939.993358 696.629132 935.43366 708.878491 934.66083 710.984453 933.926642 713.129057 933.11517 715.215698 928.613434 726.846792 923.628679 738.188075 918.27683 749.355472 917.040302 751.944453 915.823094 754.533434 914.547925 757.103094 909.254038 767.652226 903.573736 777.911547 897.54566 787.996981 895.74883 790.991698 893.971321 793.967094 892.116528 796.92317 886.185057 806.39034 879.963774 815.60634 873.394717 824.590491 870.979623 827.932981 868.525887 831.198189 866.033509 834.463396 859.599698 842.829283 852.972679 850.982642 846.017208 858.904151 842.906566 862.478491 839.699321 865.956226 836.472755 869.433962 829.69117 876.717887 822.77434 883.847245 815.567698 890.706113 811.664906 894.415698 807.646189 897.970717 803.627472 901.545057 796.614038 907.78566 789.542642 913.91034 782.181434 919.745208 777.46717 923.474113 772.59834 926.990491 767.74883 930.545509 760.600151 935.762113 753.470792 940.940075 746.051623 945.770264 740.487245 949.402566 734.72966 952.725736 729.010717 956.126189 721.862038 960.376755 714.732679 964.665962 707.352151 968.549434 700.91834 971.930566 694.252679 974.925283 687.644981 978.035925 680.573585 981.359094 673.560151 984.778868 666.295547 987.773585 658.93434 990.806943 651.341283 993.337962 643.806189 996.004226 636.908679 998.438642 630.127094 1001.066264 623.11366 1003.191547 614.689811 1005.741887 606.014792 1007.712604 597.417057 1009.799245 590.925283 1011.383547 584.568755 1013.23834 577.999698 1014.552151 567.991547 1016.542189 557.732226 1017.836679 547.511547 1019.208453 542.063094 1019.923321 536.730566 1021.024604 531.224151 1021.565585 515.361811 1023.130566 499.286943 1024 483.018868 1024 216.257208 1024 0 807.742792 0 540.981132 0 524.693736 0.850113 508.638189 2.434415 492.775849 2.975396 487.269434 4.076679 481.936906 4.791547 476.488453 6.163321 466.267774 7.457811 456.008453 9.447849 446.000302 10.76166 439.411925 12.616453 433.055396 14.200755 426.582943 16.287396 417.965887 18.258113 409.310189 20.808453 400.88634 22.933736 393.853585 25.561358 387.072 27.995774 380.193811 30.662038 372.658717 33.193057 365.06566 36.226415 357.685132 39.201811 350.420528 42.640906 343.426415 45.964075 336.355019 49.074717 329.747321 52.069434 323.08166 55.450566 316.647849 59.334038 309.248 63.623245 302.137962 67.873811 294.989283 71.274264 289.27034 74.597434 283.512755 78.210415 277.948377 83.059925 270.529208 88.237887 263.380528 93.454491 256.25117 97.009509 251.40166 100.525887 246.53283 104.254792 241.818566 110.07034 234.457358 116.21434 227.366642 122.454943 220.353208 126.029283 216.353811 129.584302 212.335094 133.293887 208.432302 140.152755 201.22566 147.282113 194.30883 154.566038 187.527245 158.043774 184.300679 161.521509 181.093434 165.076528 177.963472 173.017358 171.027321 181.170717 164.380981 189.536604 157.966491 192.801811 155.474113 196.067019 153.001057 199.390189 150.585962 208.39366 144.036226 217.60966 137.814943 227.07683 131.883472 230.013585 130.028679 233.008302 128.231849 236.003019 126.45434 246.088453 120.426264 256.347774 114.745962 266.896906 109.452075 269.466566 108.176906 272.055547 106.959698 274.644528 105.72317 285.811925 100.371321 297.153208 95.386566 308.784302 90.88483 310.870943 90.073358 313.015547 89.33917 315.121509 88.547019 327.370868 84.006642 339.774792 79.872 352.468528 76.316981 354.014189 75.872604 355.598491 75.52483 357.144151 75.099774 370.475472 71.506113 383.980679 68.395472 397.737057 65.941736 398.625811 65.767849 399.514566 65.671245 400.403321 65.516679 414.874566 63.024302 429.500377 61.092226 444.377358 59.91366 444.377358 59.91366 444.377358 57.962264 444.377358 57.962264 444.377358 57.962264 444.377358 57.962264 444.377358 57.962264 444.377358 57.962264 483.018868 57.962264 483.018868 57.962264 483.018868 57.962264 483.018868 57.962264 483.018868 57.962264 483.018868 57.962264 483.018868 57.962264 483.018868 57.962264 483.018868 57.962264 483.018868 540.981132 483.018868 540.981132 483.018868 540.981132 927.396226 540.981132 927.396226 540.981132 927.396226 540.981132 966.037736 540.981132 966.037736 540.981132Z" p-id="1018" fill="#cdcdcd"></path></svg>