<?xml version="1.0" standalone="no"?><!DOCTYPE svg PUBLIC "-//W3C//DTD SVG 1.1//EN" "http://www.w3.org/Graphics/SVG/1.1/DTD/svg11.dtd"><svg t="1482316002624" class="icon" style="" viewBox="0 0 1024 1024" version="1.1" xmlns="http://www.w3.org/2000/svg" p-id="4030" xmlns:xlink="http://www.w3.org/1999/xlink" width="200" height="200"><defs><style type="text/css"></style></defs><path d="M512 536.32C558.848 482.624 627.072 448 703.936 448c9.344 0 18.048 1.792 27.072 2.688C753.984 412.352 768 368 768 320.064 768 178.752 653.376 64 512.064 64S256 178.752 256 320.064C256 368 270.016 412.352 292.992 450.688 302.016 449.728 310.784 448 320.064 448 396.928 448 465.152 482.624 512 536.32zM484.992 573.312c-81.792-8.704-151.68-55.232-192-122.56C164.48 464.384 64 571.968 64 704c0 141.312 114.624 256 256.064 256C396.928 960 465.152 925.376 512 871.68 472.64 826.688 448 768.448 448 704 448 656 462.016 611.648 484.992 573.312zM731.008 450.688c-40.256 67.328-110.144 113.856-192 122.56C561.984 611.648 576 656 576 704c0 64.448-24.64 122.688-64 167.68C558.848 925.376 627.072 960 703.936 960 845.376 960 960 845.312 960 704 960 571.968 859.52 464.448 731.008 450.688zM484.992 573.312C494.016 574.208 502.784 576 512.064 576c9.216 0 17.92-1.728 26.944-2.688C531.136 560.064 522.048 547.84 512 536.32 501.952 547.84 492.864 560.064 484.992 573.312z" p-id="4031" fill="#f7941d"></path></svg>