<?xml version="1.0" standalone="no"?><!DOCTYPE svg PUBLIC "-//W3C//DTD SVG 1.1//EN" "http://www.w3.org/Graphics/SVG/1.1/DTD/svg11.dtd"><svg t="1482223215867" class="icon" style="" viewBox="0 0 1024 1024" version="1.1" xmlns="http://www.w3.org/2000/svg" p-id="4506" xmlns:xlink="http://www.w3.org/1999/xlink" width="200" height="200"><defs><style type="text/css"></style></defs><path d="M445.943027 140.157133c-64.705698 100.43955-31.890314 174.019359-31.890314 174.019359s-25.12319-41.269939-37.620829 0c-12.604062 41.354873 8.317433 57.892525 52.316529 109.507066 43.890626 51.676963 110.859877 130.194224 163.132404 148.796908 52.380998 18.602683 142.253888-76.431763 194.570417-138.38886 52.315506-62.021565 50.161447-97.1619 35.509748-119.915114-14.589276-22.730701-22.948665 0-22.948665 0s18.831904-106.356306-31.458479-170.400948C683.28355 36.18513 510.777661 39.760562 445.943027 140.157133L445.943027 140.157133zM480.460168 589.508281c0 0 29.735232 86.22071 57.401338 144.987139 27.53717 58.827827 25.447579 37.820374 25.447579 37.820374s21.222347-77.707826 21.222347-94.52177-29.755698-31.564903-19.132756-58.82885c10.644431-27.329439 44.623313-37.82242 70.134337-20.965497 25.470091 16.70752 23.422456 29.331026 10.580986 56.723909-12.713556 27.26497-14.824637 42.015929-14.824637 42.015929l27.558659 79.771835 78.625732-180.617637c23.982204-55.105039 232.125755 160.907737 219.563648 277.225929-13.120832 120.616078-703.896518 96.139617-703.896518 33.692357C253.139859 747.732909 329.782424 642.759089 480.460168 589.508281zM63.93566 446.818465c0-2.000564 166.967756-151.798265 174.551478-159.118997C262.642281 311.218114 408.967904 446.818465 408.967904 446.818465l0 125.256772c0 32.30987-83.042321 24.136723-147.294694 131.856074-69.338205 116.167766-35.294854 227.461525-64.921615 229.740428-28.463262 2.299369-61.365626-0.661056-98.362238-0.661056-18.960841 0-34.453696-11.68411-34.453696-25.880437C63.93566 754.50208 63.93566 598.235037 63.93566 446.818465L63.93566 446.818465zM234.307955 388.159484c-51.64831 0-93.556792 41.461297-93.556792 92.458785 0 51.060933 41.909505 92.480274 93.556792 92.480274 51.691289 0 93.66424-41.419342 93.66424-92.480274C327.972195 429.620781 285.999245 388.159484 234.307955 388.159484z" p-id="4507" fill="#cdcdcd"></path></svg>