<?xml version="1.0" standalone="no"?><!DOCTYPE svg PUBLIC "-//W3C//DTD SVG 1.1//EN" "http://www.w3.org/Graphics/SVG/1.1/DTD/svg11.dtd"><svg t="1482408009721" class="icon" style="" viewBox="0 0 1024 1024" version="1.1" xmlns="http://www.w3.org/2000/svg" p-id="2411" xmlns:xlink="http://www.w3.org/1999/xlink" width="32" height="32"><defs><style type="text/css"></style></defs><path d="M201.596928 192.804864h254.724096c35.569664 0 57.67168 28.993536 49.37728 64.677888l-118.597632 509.149184c-8.378368 35.606528-43.968512 64.565248-79.519744 64.565248H52.8384c-35.551232 0-57.679872-28.956672-49.385472-64.565248l118.67136-509.149184c8.257536-35.684352 43.84768-64.677888 79.47264-64.677888" fill="#e03333" p-id="2412"></path><path d="M435.124224 192.804864h292.927488c35.569664 0 19.515392 28.993536 11.153408 64.677888l-118.566912 509.149184c-8.32512 35.606528-5.709824 64.565248-41.345024 64.565248H286.39232c-35.6352 0-57.679872-28.956672-49.317888-64.565248l118.560768-509.149184c8.38656-35.684352 43.937792-64.677888 79.489024-64.677888" fill="#004889" p-id="2413"></path><path d="M716.474368 192.804864h254.6688c35.598336 0 57.729024 28.993536 49.385472 64.677888l-118.616064 509.149184c-8.31488 35.606528-43.902976 64.565248-79.587328 64.565248H567.7056c-35.616768 0-57.718784-28.956672-49.328128-64.565248l118.532096-509.149184c8.323072-35.684352 43.911168-64.677888 79.5648-64.677888" fill="#008089" p-id="2414"></path><path d="M673.908736 654.340096h24.037376l6.92224-23.08096h-24.00256l-6.957056 23.08096z m19.222528-63.711232l-8.267776 27.303936s9.160704-4.665344 14.024704-6.139904c4.93568-1.138688 12.414976-2.052096 12.414976-2.052096l5.859328-19.111936h-24.031232z m11.917312-39.313408l-7.95648 26.259456s8.916992-4.016128 13.815808-5.369856c4.937728-1.298432 12.357632-1.767424 12.357632-1.767424l5.75488-19.120128h-23.97184z m53.108736 0l-31.045632 102.750208h8.341504l-6.432768 21.209088h-8.341504l-1.957888 6.592512h-29.53216l2.013184-6.592512H631.15264l6.045696-19.638272h6.068224l31.496192-104.321024 6.283264-21.065728h30.132224l-3.149824 10.635264s8.04864-5.77536 15.640576-7.729152c7.579648-2.031616 51.265536-2.766848 51.265536-2.766848l-6.432768 20.926464h-10.344448z" fill="#FFFFFF" p-id="2415"></path><path d="M771.465216 530.419712h32.18432l0.3584 12.019712c-0.198656 1.984512 1.542144 2.953216 5.265408 2.953216h6.537216l-6.002688 19.795968h-17.334272c-15.046656 1.091584-20.75648-5.380096-20.416512-12.640256l-0.591872-22.12864zM775.696384 624.318464h-30.640128l5.249024-17.65376h35.033088l5.003264-16.054272h-34.582528l5.924864-19.900416h96.29696l-6.029312 19.900416h-32.27648l-5.052416 16.054272h32.372736l-5.330944 17.65376h-35.043328l-6.21568 7.419904h14.219264l3.45088 22.224896c0.36864 2.183168 0.434176 3.631104 1.112064 4.552704 0.704512 0.845824 4.993024 1.204224 7.448576 1.204224h4.306944l-6.555648 21.610496h-10.928128c-1.722368 0-4.186112-0.131072-7.61856-0.309248-3.311616-0.272384-5.634048-2.199552-7.8336-3.23584-2.004992-1.015808-5.023744-3.45088-5.728256-7.569408l-3.405824-22.15936-15.941632 21.819392c-5.031936 6.893568-11.896832 12.158976-23.437312 12.158976h-22.298624l5.804032-19.288064h8.538112c2.473984 0 4.665344-0.950272 6.234112-1.796096 1.646592-0.67584 3.125248-1.513472 4.74112-3.92192l23.18336-32.710656zM439.883776 576.0512h81.2032l-5.98016 19.392512H482.6112l-5.060608 16.49664h33.2288l-6.037504 19.994624h-33.2288l-8.032256 26.85952c-0.987136 2.971648 7.862272 3.366912 11.051008 3.366912l16.627712-2.277376-6.668288 22.130688H447.05792c-2.961408 0-5.265408-0.413696-8.511488-1.138688-3.168256-0.79872-4.542464-2.21184-5.951488-4.374528-1.374208-2.199552-3.424256-3.966976-2.023424-8.63232l10.739712-35.596288h-18.434048l6.111232-20.334592h18.556928l4.909056-16.49664h-18.45248l5.881856-19.390464zM494.555136 541.263872h33.302528l-6.094848 20.228096h-45.484032l-4.937728 4.28032c-2.107392 2.031616-2.832384 1.183744-5.605376 2.691072-2.586624 1.306624-7.985152 3.846144-15.0016 3.846144h-14.579712l5.90848-19.470336h4.419584c3.694592 0 6.234112-0.319488 7.46496-1.138688 1.447936-0.940032 3.065856-2.99008 4.919296-6.309888l8.361984-15.235072h33.124352l-5.797888 11.108352z" fill="#FFFFFF" p-id="2416"></path><path d="M558.471168 574.55616s9.039872-8.275968 24.631296-10.958848c3.516416-0.724992 25.665536-0.489472 25.665536-0.489472l3.350528-11.096064h-46.856192l-6.791168 22.544384z m43.93984 8.503296h-46.508032l-2.859008 9.396224h40.2432c4.74112-0.612352 5.728256 0.075776 6.12352-0.149504l3.00032-9.24672z m-60.239872-52.639744h28.356608l-4.128768 14.266368s8.974336-7.129088 15.255552-9.68704c6.23616-2.351104 20.379648-4.458496 20.379648-4.458496l45.858816-0.21504-15.603712 52.066304c-2.633728 8.945664-5.681152 14.729216-7.60832 17.334272-1.748992 2.707456-3.772416 4.937728-7.768064 7.15776-3.91168 2.041856-7.401472 3.23584-10.645504 3.565568-3.047424 0.23552-7.712768 0.356352-14.145536 0.403456h-44.193792l-12.500992 41.203712c-1.193984 4.091904-1.748992 6.037504-0.958464 7.129088 0.659456 0.987136 2.152448 2.107392 4.231168 2.107392l19.478528-1.85344-6.631424 22.59968h-21.846016c-6.94272 0-12.027904-0.141312-15.556608-0.432128-3.366912-0.243712-6.864896 0-9.197568-1.816576-2.050048-1.804288-5.1712-4.13696-5.097472-6.57408 0.22528-2.228224 1.13664-5.951488 2.557952-11.022336l39.763968-131.774464z" fill="#FFFFFF" p-id="2417"></path><path d="M624.871424 614.479872l-2.615296 12.517376c-1.110016 3.903488-2.105344 6.866944-5.050368 9.3696-3.063808 2.613248-6.770688 5.380096-15.282176 5.380096l-15.69792 0.630784-0.141312 14.17216c-0.21504 4.026368 0.864256 3.602432 1.49504 4.25984 0.743424 0.677888 1.374208 1.015808 2.080768 1.232896l4.9664-0.217088 15.036416-0.892928-6.168576 20.65408h-17.268736c-12.09344 0-21.039104-0.253952-24.008704-2.613248-2.879488-1.816576-3.291136-4.159488-3.217408-8.07936l1.118208-55.179264h27.518976l-0.376832 11.28448h6.658048c2.256896 0 3.772416-0.23552 4.712448-0.8192 0.8192-0.647168 1.447936-1.523712 1.908736-2.87744l2.680832-8.820736h21.651456zM231.7312 355.444736c-0.995328 4.450304-18.649088 86.018048-18.724864 86.065152-3.80928 16.504832-6.57408 28.309504-15.951872 35.88096-5.369856 4.401152-11.575296 6.524928-18.798592 6.524928-11.577344 0-18.397184-5.75488-19.564544-16.703488l-0.206848-3.751936s3.526656-22.120448 3.57376-22.194176c0 0 18.546688-74.356736 21.876736-84.174848 0.131072-0.546816 0.196608-0.79872 0.274432-1.083392-36.108288 0.301056-42.539008 0-42.942464-0.565248-0.23552 0.743424-1.204224 5.359616-1.204224 5.359616l-18.92352 83.75296-1.644544 7.118848-3.094528 23.238656c0 6.877184 1.316864 12.490752 4.026368 17.276928 8.671232 15.11424 33.275904 17.334272 47.194112 17.334272 17.946624 0 34.732032-3.846144 46.123008-10.739712 19.73248-11.700224 24.932352-29.956096 29.52192-46.14144l2.152448-8.286208s19.101696-77.215744 22.3744-87.267328c0.083968-0.546816 0.178176-0.79872 0.301056-1.083392-26.185728 0.284672-33.880064 0.002048-36.36224-0.561152M337.453056 508.727296c-12.818432-0.206848-17.29536-0.206848-32.288768 0.528384l-0.581632-1.083392c1.325056-5.681152 2.717696-11.3152 3.987456-17.088512l1.8432-7.778304c2.766848-12.152832 5.511168-26.249216 5.804032-30.511104 0.262144-2.613248 1.13664-9.048064-6.23616-9.048064-3.1232 0-6.356992 1.4848-9.648128 3.008512-1.796096 6.47168-5.44768 24.539136-7.176192 32.841728-3.6864 17.381376-3.950592 19.365888-5.595136 27.987968l-1.091584 1.138688c-13.203456-0.206848-17.764352-0.206848-32.9728 0.528384l-0.704512-1.222656a2436.706304 2436.706304 0 0 0 7.49568-31.092736c6.385664-28.02688 7.880704-38.76864 9.66656-53.014528l1.183744-0.864256c14.823424-2.041856 18.405376-2.476032 34.441216-5.77536l1.343488 1.523712-2.408448 8.943616c2.709504-1.61792 5.267456-3.262464 8.07936-4.691968 7.561216-3.69664 15.949824-4.806656 20.576256-4.806656 7.026688 0 14.67392 1.974272 17.887232 10.082304 3.065856 7.223296 1.062912 16.166912-2.953216 33.753088l-2.05824 8.925184c-4.110336 19.562496-4.786176 23.16288-7.073792 36.575232l-1.519616 1.140736zM389.482496 491.292672c-7.702528-0.047104-12.668928-0.206848-17.502208-0.047104-4.84352 0.047104-9.527296 0.272384-16.703488 0.57344l-0.434176-0.57344-0.4608-0.649216c1.927168-7.421952 3.037184-10.0352 4.005888-12.640256 0.968704-2.613248 1.908736-5.275648 3.631104-12.8 2.217984-9.771008 3.649536-16.637952 4.589568-22.657024 1.03424-5.830656 1.61792-10.768384 2.349056-16.494592l0.602112-0.434176 0.630784-0.555008c7.665664-1.110016 12.546048-1.796096 17.522688-2.557952 5.040128-0.761856 10.110976-1.722368 18.067456-3.217408l0.301056 0.677888 0.23552 0.69632a1471.688704 1471.688704 0 0 0-4.466688 18.311168c-1.411072 6.131712-2.88768 12.197888-4.25984 18.274304-2.861056 12.93312-4.016128 17.719296-4.712448 21.159936-0.657408 3.291136-0.806912 5.0688-1.992704 11.794432l-0.69632 0.58368-0.70656 0.555008zM471.05024 445.763584c-0.67584 3.311616-3.55328 15.669248-7.514112 20.944896-2.736128 3.81952-6.008832 6.162432-9.601024 6.162432-1.04448 0-7.356416 0-7.448576-9.375744-0.077824-4.646912 0.845824-9.435136 2.021376-14.579712 3.34848-14.925824 7.3728-27.414528 17.512448-27.414528 8.001536-0.002048 8.511488 9.289728 5.029888 24.262656m33.511424 1.431552c4.48512-19.714048 1.073152-28.921856-3.340288-34.535424-6.694912-8.521728-18.468864-11.28448-30.726144-11.28448-7.344128 0-24.827904 0.741376-38.539264 13.38368-9.754624 9.076736-14.344192 21.434368-17.098752 33.255424-2.736128 12.02176-5.953536 33.80224 14.012416 41.863168 6.22592 2.605056 15.030272 3.33824 20.774912 3.33824 14.635008 0 29.626368-4.026368 40.845312-15.988736 8.77568-9.709568 12.726272-24.137728 14.071808-30.031872M837.640192 402.25792c-15.988736 2.971648-20.258816 3.581952-35.618816 5.75488l-1.13664 0.968704c-0.169984 1.230848-0.292864 2.42688-0.479232 3.602432-2.379776-3.885056-5.849088-7.176192-11.220992-9.23648-6.846464-2.6624-22.908928 0.790528-36.640768 13.326336-9.744384 9.019392-14.381056 21.274624-17.088512 33.077248-2.756608 11.86816-5.953536 33.583104 13.918208 41.334784 6.311936 2.678784 12.058624 3.47136 17.758208 3.217408 6.084608-0.329728 11.708416-3.350528 16.928768-7.72096-0.479232 1.767424-0.940032 3.57376-1.409024 5.369856l0.929792 1.138688c14.31552-0.612352 18.755584-0.612352 34.187264-0.489472l1.421312-1.081344c2.254848-13.279232 4.411392-26.17344 10.307584-51.632128 2.801664-12.132352 5.728256-24.22784 8.6528-36.304896l-0.509952-1.325056z m-50.712576 66.041856c-2.605056 3.70688-8.869888 6.037504-12.443648 6.037504-0.997376 0-7.28064 0-7.50592-9.302016-0.047104-4.58752 0.923648-9.375744 2.07872-14.577664 3.395584-14.585856 7.38304-27.039744 17.54112-27.039744 6.432768 0 9.836544 5.953536 9.1136 16.130048-0.526336 2.492416-1.138688 5.154816-1.814528 8.173568-1.017856 4.390912-2.125824 8.726528-3.217408 13.082624-1.091584 2.904064-2.340864 5.679104-3.751936 7.49568M592.103424 508.727296c-12.857344-0.206848-17.238016-0.206848-32.288768 0.528384l-0.565248-1.083392c1.271808-5.681152 2.719744-11.3152 4.083712-17.088512l1.775616-7.778304c2.78528-12.152832 5.492736-26.249216 5.793792-30.511104 0.253952-2.613248 1.128448-9.048064-6.199296-9.048064-3.168256 0-6.385664 1.4848-9.66656 3.008512-1.796096 6.47168-5.464064 24.539136-7.241728 32.841728-3.647488 17.381376-3.883008 19.365888-5.55008 27.987968l-1.089536 1.138688c-13.205504-0.206848-17.727488-0.206848-32.917504 0.528384l-0.694272-1.222656a3951.43168 3951.43168 0 0 0 7.467008-31.092736c6.356992-28.02688 7.852032-38.76864 9.601024-53.014528l1.183744-0.864256c14.823424-2.041856 18.425856-2.476032 34.461696-5.77536l1.277952 1.523712-2.342912 8.943616c2.633728-1.61792 5.351424-3.262464 8.071168-4.691968 7.4752-3.69664 15.986688-4.806656 20.52096-4.806656 7.02464 0 14.716928 1.974272 18.018304 10.082304 2.992128 7.223296 0.978944 16.166912-3.063808 33.753088l-2.031616 8.925184c-4.175872 19.562496-4.835328 23.16288-7.03488 36.575232l-1.568768 1.140736z" fill="#FFFFFF" p-id="2418"></path><path d="M703.072256 355.321856l-10.645504 0.149504c-27.707392 0.309248-38.803456 0.186368-43.358208-0.34816-0.432128 1.992704-1.175552 5.613568-1.175552 5.613568s-9.846784 45.971456-9.846784 46.036992l-24.858624 102.375424c24.143872-0.274432 34.074624-0.274432 38.213632 0.131072 0.958464-4.589568 6.57408-31.864832 6.639616-31.864832 0 0 4.788224-20.097024 5.060608-20.822016 0 0 1.497088-2.060288 3.047424-2.861056h2.172928c20.832256 0 44.449792 0 62.85312-13.60896 12.517376-9.310208 21.161984-23.07072 24.979456-39.727104 0.987136-4.091904 1.73056-9.019392 1.73056-13.881344 0-6.414336-1.296384-12.716032-5.021696-17.65376-9.424896-13.201408-28.102656-13.387776-49.790976-13.539328m13.881344 47.880192c-2.275328 10.156032-8.86784 18.771968-17.379328 22.929408-7.043072 3.547136-15.630336 3.81952-24.481792 3.81952h-5.728256l0.434176-2.306048s10.590208-45.887488 10.543104-45.746176l0.243712-2.349056 0.23552-1.816576 4.212736 0.442368 22.290432 1.927168c8.568832 3.293184 12.111872 11.925504 9.629696 23.099392M403.57888 430.137344c8.466432-5.904384 9.500672-14.067712 2.379776-18.302976-7.24992-4.231168-19.871744-2.904064-28.411904 2.992128-8.566784 5.832704-9.527296 14.014464-2.349056 18.266112 7.163904 4.184064 19.832832 2.942976 28.381184-2.955264M944.357376 402.11456l-1.243136-1.374208c-15.761408 3.141632-18.659328 3.69664-33.169408 5.623808l-1.118208 1.04448c-0.057344 0.169984-0.083968 0.479232-0.13312 0.70656l-0.075776-0.227328c-10.84416 24.979456-10.467328 19.591168-19.308544 39.247872a115.920896 115.920896 0 0 1-0.104448-2.41664l-2.209792-42.604544-1.353728-1.374208c-16.533504 3.141632-16.996352 3.69664-32.260096 5.623808l-1.251328 1.04448c-0.104448 0.555008-0.120832 1.112064-0.196608 1.693696l0.09216 0.24576c1.910784 9.78944 1.476608 7.591936 3.366912 22.996992 0.892928 7.542784 2.080768 15.2064 2.926592 22.654976 1.542144 12.517376 2.408448 18.696192 4.204544 37.752832-10.299392 17.088512-12.771328 23.52128-22.628352 38.52288l0.016384 0.083968-6.987776 11.153408c-0.845824 1.110016-1.570816 1.890304-2.53952 2.217984-1.138688 0.565248-2.633728 0.688128-4.665344 0.688128h-3.846144l-5.783552 19.214336 19.85536 0.303104c11.606016-0.057344 18.8928-5.502976 22.82496-12.771328l12.46208-21.284864h-0.243712l1.374208-1.523712c8.351744-17.993728 71.995392-127.24224 71.995392-127.24224" fill="#FFFFFF" p-id="2419"></path></svg>