<?xml version="1.0" standalone="no"?><!DOCTYPE svg PUBLIC "-//W3C//DTD SVG 1.1//EN" "http://www.w3.org/Graphics/SVG/1.1/DTD/svg11.dtd"><svg t="1482317177990" class="icon" style="" viewBox="0 0 1024 1024" version="1.1" xmlns="http://www.w3.org/2000/svg" p-id="2224" xmlns:xlink="http://www.w3.org/1999/xlink" width="32" height="32"><defs><style type="text/css"></style></defs><path d="M948.842253 782.740214 752.533238 667.071821c-10.200316-5.214768-25.167193-2.837628-33.267685 5.262864l-57.761542 57.755402c-8.084119 8.090259-24.081465 14.821567-35.530215 14.954597 0 0-73.80596 0.849344-211.037461-136.394437C277.697673 471.417723 278.352589 397.375379 278.352589 397.375379c0.109494-11.449773 6.816243-27.447119 14.905478-35.524075l49.235354-49.228191c8.101515-8.113795 10.818393-23.23826 6.039553-33.656541L240.244666 75.295893c-4.777817-10.406001-15.31787-12.298094-23.407106-4.220115L82.547041 205.04498c-8.102538 8.064676-15.972786 23.977088-17.495466 35.329646 0 0-26.197662 195.750289 248.097518 470.045469 274.299273 274.293133 470.044446 248.096495 470.044446 248.096495 11.346419-1.527796 27.257807-9.386788 35.341926-17.477047l134.13293-134.12679C960.75149 798.821471 959.035406 787.931446 948.842253 782.740214z" p-id="2225" fill="#f7941d"></path></svg>