<?xml version="1.0" standalone="no"?><!DOCTYPE svg PUBLIC "-//W3C//DTD SVG 1.1//EN" "http://www.w3.org/Graphics/SVG/1.1/DTD/svg11.dtd"><svg t="1482222659223" class="icon" style="" viewBox="0 0 1024 1024" version="1.1" xmlns="http://www.w3.org/2000/svg" p-id="2419" xmlns:xlink="http://www.w3.org/1999/xlink" width="200" height="200"><defs><style type="text/css"></style></defs><path d="M594.295308 620.301612c-8.806573-3.27151-17.557888-6.376221-26.253944-9.237385-5.51562-1.813299-51.495838-26.495444-18.60473-83.658352l-0.280386 0c56.713676-58.414411 100.038414-152.450111 100.038414-245.00918 0-142.31631-94.634334-216.905098-204.600865-216.905098-110.060675 0-204.189496 74.588789-204.189496 216.905098 0 92.932576 43.137473 187.361225 100.168374 245.626233 22.213931 58.32129-17.615193 79.768765-25.859971 83.040275C108.5953 692.927699 64.409962 803.604404 64.409962 803.604404l0 155.330718 349.647355 0 59.611679-217.502709L594.295308 620.301612 594.295308 620.301612M814.697043 656.128585l-33.639145-33.714869 0.187265-0.204661-45.045939-44.989657L531.298532 780.288372c-2.804882 2.261507-5.199419 5.142114-6.2831 8.862855l-47.607274 169.784918L651.082662 915.180596c3.478218-1.028423 6.170536-3.178389 8.376785-5.777587l205.386764-203.572442-49.944506-49.907667L814.697043 656.128585 814.697043 656.128585M532.963451 906.72911c0 0 20.455891-81.414241 23.616884-95.924723 43.493583 18.662035 72.830749 72.813353 72.830749 72.813353L532.963451 906.72911M754.804978 556.763506l128.666428 128.627543 29.43131-27.598568L784.217868 529.145495 754.804978 556.763506M946.729126 554.911322l-61.668525-61.630662c-17.015535-17.015535-44.465724-17.184381-61.293995-0.336668l-18.903535 19.091824 123.262348 123.31863 18.941398-19.148106C963.894064 599.414909 963.744661 571.9463 946.729126 554.911322L946.729126 554.911322M946.729126 554.911322 946.729126 554.911322z" p-id="2420" fill="#cdcdcd"></path></svg>