<?xml version="1.0" standalone="no"?><!DOCTYPE svg PUBLIC "-//W3C//DTD SVG 1.1//EN" "http://www.w3.org/Graphics/SVG/1.1/DTD/svg11.dtd"><svg t="1482223396271" class="icon" style="" viewBox="0 0 1024 1024" version="1.1" xmlns="http://www.w3.org/2000/svg" p-id="5331" xmlns:xlink="http://www.w3.org/1999/xlink" width="200" height="200"><defs><style type="text/css"></style></defs><path d="M331.946204 567.970756c-19.603477 19.603477-19.603477 51.505048 0 71.117734 19.594267 19.590174 51.505048 19.590174 71.095221-0.00921 19.594267-19.603477 19.594267-51.506071 0-71.095221C383.451252 548.380582 351.540472 548.380582 331.946204 567.970756z" p-id="5332" fill="#f7941d"></path><path d="M512 63.787792c-248.494561 0-449.940572 201.444988-449.940572 449.940572s201.444988 449.940572 449.940572 449.940572S961.939549 762.222925 961.939549 513.727341 760.494561 63.787792 512 63.787792zM481.518778 343.702969c3.374864-48.840358 30.614252-81.034595 84.130096-81.034595 54.663994 0 78.791507 37.110199 81.817424 81.034595 13.809517 0 14.859429 18.20871 13.07376 31.849382-1.746784 13.065574-12.18553 28.898167-22.289656 34.226522-30.772864 93.466742-116.688629 93.599771-147.510612 0-10.111289-5.328355-20.541849-21.160949-22.285562-34.226522C466.654232 361.886097 467.730751 343.702969 481.518778 343.702969zM526.652721 742.41581l-20.261463 20.274766c-1.347694 1.332345-3.169179 2.095731-5.070482 2.095731-1.89721 0-3.719718-0.763386-5.067412-2.095731l-49.390897-49.400107c-2.797719-2.799766-2.797719-7.336082 0-10.134825l-21.523199-21.526269c-38.062897 28.226878-92.163049 25.204032-126.651538-9.28548-37.940101-37.945217-37.940101-99.686397 0-137.623427 37.937031-37.953404 99.67821-37.944194 137.615241 0.00921 34.497699 34.488489 37.515429 88.577385 9.29776 126.646422l21.523199 21.519106c2.788509-2.812045 7.325849-2.812045 10.124592 0l49.4042 49.389874C529.446347 735.084844 529.446347 739.617068 526.652721 742.41581zM753.766322 721.197556 535.818475 721.197556l-48.440246-48.435129c-4.342912-4.352121-10.262738-6.641257-16.388249-6.262634l-7.021927-7.02909c24.919553-43.067888 18.246573-99.095949-17.537422-134.876873-8.708336-8.711406-18.656919-15.694447-29.392424-21.013593 11.648294-8.360412 25.01472-14.744819 39.9642-17.86488l34.876322-7.271614 72.606645 144.751778 72.619948-144.751778 34.875299 7.271614c47.721885 9.955746 81.784678 50.424436 81.785701 97.202832L753.766322 721.197556z" p-id="5333" fill="#f7941d"></path></svg>