<?xml version="1.0" standalone="no"?><!DOCTYPE svg PUBLIC "-//W3C//DTD SVG 1.1//EN" "http://www.w3.org/Graphics/SVG/1.1/DTD/svg11.dtd"><svg t="1482223597759" class="icon" style="" viewBox="0 0 1024 1024" version="1.1" xmlns="http://www.w3.org/2000/svg" p-id="6377" xmlns:xlink="http://www.w3.org/1999/xlink" width="200" height="200"><defs><style type="text/css"></style></defs><path d="M823.59485 1024 200.40515 1024c-110.750215 0-200.40515-89.947926-200.40515-200.40515L0 200.40515c0-110.457225 89.947926-200.40515 200.40515-200.40515l623.1897 0c110.457225 0 200.40515 89.947926 200.40515 200.40515l0 623.1897C1024 934.052074 934.052074 1024 823.59485 1024L823.59485 1024M200.40515 36.916738c-90.240916 0-163.488412 73.247496-163.488412 163.488412l0 623.1897c0 90.240916 73.247496 163.488412 163.488412 163.488412l623.1897 0c90.240916 0 163.488412-73.247496 163.488412-163.488412L987.083262 200.40515c0-90.240916-73.247496-163.488412-163.488412-163.488412L200.40515 36.916738 200.40515 36.916738M200.40515 36.916738 200.40515 36.916738z" p-id="6378" fill="#f7941d"></path><path d="M334.008584 343.677253l-137.119313 0c-20.509299 0-36.916738-16.700429-36.916738-36.916738 0-20.509299 16.700429-36.916738 36.916738-36.916738L334.008584 269.843777c20.509299 0 36.916738 16.700429 36.916738 36.916738C370.925322 327.269814 354.517883 343.677253 334.008584 343.677253L334.008584 343.677253M334.008584 343.677253 334.008584 343.677253z" p-id="6379" fill="#f7941d"></path><path d="M265.155937 412.5299c-20.509299 0-36.916738-16.700429-36.916738-36.916738l0-137.119313c0-20.509299 16.700429-36.916738 36.916738-36.916738 20.509299 0 36.916738 16.700429 36.916738 36.916738l0 137.119313C302.365665 395.829471 285.665236 412.5299 265.155937 412.5299L265.155937 412.5299M265.155937 412.5299 265.155937 412.5299z" p-id="6380" fill="#f7941d"></path><path d="M830.333619 519.471245 196.59628 519.471245c-10.254649 0-18.458369-8.20372-18.458369-18.458369 0-10.254649 8.20372-18.458369 18.458369-18.458369l633.444349 0c10.254649 0 18.458369 8.20372 18.458369 18.458369C848.791989 511.267525 840.295279 519.471245 830.333619 519.471245L830.333619 519.471245M830.333619 519.471245 830.333619 519.471245z" p-id="6381" fill="#f7941d"></path><path d="M830.333619 647.800858 196.59628 647.800858c-10.254649 0-18.458369-8.20372-18.458369-18.458369 0-10.254649 8.20372-18.458369 18.458369-18.458369l633.444349 0c10.254649 0 18.458369 8.20372 18.458369 18.458369C848.791989 639.597139 840.295279 647.800858 830.333619 647.800858L830.333619 647.800858M830.333619 647.800858 830.333619 647.800858z" p-id="6382" fill="#f7941d"></path><path d="M830.333619 776.423462 196.59628 776.423462c-10.254649 0-18.458369-8.20372-18.458369-18.458369 0-10.254649 8.20372-18.458369 18.458369-18.458369l633.444349 0c10.254649 0 18.458369 8.20372 18.458369 18.458369C848.791989 767.926753 840.295279 776.423462 830.333619 776.423462L830.333619 776.423462M830.333619 776.423462 830.333619 776.423462z" p-id="6383" fill="#f7941d"></path></svg>