<?xml version="1.0" standalone="no"?><!DOCTYPE svg PUBLIC "-//W3C//DTD SVG 1.1//EN" "http://www.w3.org/Graphics/SVG/1.1/DTD/svg11.dtd"><svg t="1482414647423" class="icon" style="" viewBox="0 0 1024 1024" version="1.1" xmlns="http://www.w3.org/2000/svg" p-id="1018" xmlns:xlink="http://www.w3.org/1999/xlink" width="200" height="200"><defs><style type="text/css"></style></defs><path d="M737.248 333.92l-265.888 268.704-117.664-120.896c-14.112-14.464-37.152-14.72-51.552-0.736-14.432 14.048-14.752 37.152-0.736 51.552l143.584 147.552c0.064 0.096 0.224 0.096 0.288 0.224 0.064 0.064 0.096 0.224 0.192 0.288 2.368 2.336 5.248 3.712 8 5.28 1.344 0.768 2.464 1.984 3.872 2.528 4.416 1.824 9.088 2.72 13.792 2.72 4.64 0 9.248-0.928 13.632-2.656 1.408-0.576 2.528-1.76 3.872-2.464 2.72-1.536 5.568-2.88 7.904-5.184 0.064-0.064 0.096-0.224 0.224-0.288 0.064-0.096 0.192-0.16 0.288-0.224l292.032-295.136c14.176-14.336 14.048-37.376-0.288-51.552-14.272-14.144-37.408-14.048-51.52 0.288zM515.104 0.576c-4.032-0.704-8.16-0.736-12.224-0.032-109.056 18.304-464.896 88.576-464.896 224.32 0 439.584 355.552 799.136 470.944 799.136 113.408 0 477.056-368.608 477.056-799.136-0.032-129.184-329.312-199.872-470.912-224.288zM508.896 951.008c-66.976-6.432-398.016-320.384-398.016-726.176 0-43.84 188.896-115.488 397.952-151.36 212.32 37.344 404.224 109.024 404.224 151.36 0 404.992-336.16 719.552-404.16 726.176z" p-id="1019" fill="#f7941d"></path></svg>