<?xml version="1.0" standalone="no"?><!DOCTYPE svg PUBLIC "-//W3C//DTD SVG 1.1//EN" "http://www.w3.org/Graphics/SVG/1.1/DTD/svg11.dtd"><svg t="1482223930506" class="icon" style="" viewBox="0 0 1024 1024" version="1.1" xmlns="http://www.w3.org/2000/svg" p-id="7929" xmlns:xlink="http://www.w3.org/1999/xlink" width="200" height="200"><defs><style type="text/css"></style></defs><path d="M511.705799 64.021106c-247.270686 0-447.724091 200.453405-447.724091 447.724091s200.453405 447.724091 447.724091 447.724091c247.27171 0 447.724091-200.453405 447.724091-447.724091S758.976486 64.021106 511.705799 64.021106zM645.735375 492.717841l0 43.650149-106.60804 0 0 60.159148 106.60804 0 0 44.209898-106.60804 0 0 87.580684-54.844096 0 0-87.580684L373.759007 640.737036l0-44.209898 110.525256 0L484.284263 536.369014 373.759007 536.369014l0-43.650149 94.29562 0L353.05343 295.17165l61.838394 0c53.723575 98.121761 86.36602 160.331615 97.934496 186.633654l1.119497 0c3.917216-10.816347 14.642488-32.641421 32.177863-65.475224l65.75561-121.157407 58.479903 0L554.237475 492.717841 645.735375 492.717841z" p-id="7930" fill="#cdcdcd"></path></svg>