<?xml version="1.0" standalone="no"?><!DOCTYPE svg PUBLIC "-//W3C//DTD SVG 1.1//EN" "http://www.w3.org/Graphics/SVG/1.1/DTD/svg11.dtd"><svg t="1482315882697" class="icon" style="" viewBox="0 0 1536 1024" version="1.1" xmlns="http://www.w3.org/2000/svg" p-id="2093" xmlns:xlink="http://www.w3.org/1999/xlink" width="300" height="200"><defs><style type="text/css"></style></defs><path d="M1483.792171 615.841476C1437.500271 339.015125 1239.037525 338.735906 1100.256614 346.076655 1087.730893 309.400832 1041.436211 24.84841 699.380753 68.627635 419.050624 95.667507 410.051507 313.265263 410.051507 423.996365 327.752013 423.996365 85.999855 423.996365 65.425681 671.208422 46.136687 928.720981 226.163533 1005.97335 388.189355 1023.999932L1128.879249 1023.999932C1195.745331 1017.561071 1519.796983 972.497417 1483.792171 615.841476L1483.792171 615.841476 1483.792171 615.841476ZM968.122411 463.482726C1002.809498 463.482726 1030.931806 489.711684 1030.931806 522.083601 1030.931806 554.445355 1002.790426 580.684476 968.122411 580.684476L535.868621 580.684476C501.181542 580.684476 473.059234 554.455518 473.059234 522.083601 473.061956 489.719305 501.20605 463.482726 535.868621 463.482726L968.122411 463.482726 968.122411 463.482726ZM541.014886 899.997261C506.327808 899.997261 478.202778 873.770274 478.202778 841.397649 478.202778 809.035196 506.346871 782.795503 541.014886 782.795503L973.263232 782.795503C1007.953041 782.795503 1036.075349 809.025033 1036.075349 841.397649 1036.075349 873.762645 1007.931247 899.997261 973.263232 899.997261L541.014886 899.997261 541.014886 899.997261ZM973.263232 737.550345 541.014886 737.550345C506.327808 737.550345 478.202778 711.321395 478.202778 678.94947 478.202778 646.587716 506.346871 620.348595 541.014886 620.348595L973.263232 620.348595C1007.953041 620.348595 1036.075349 646.577553 1036.075349 678.94947 1036.075349 711.311223 1007.931247 737.550345 973.263232 737.550345L973.263232 737.550345 973.263232 737.550345ZM922.967552 710.803362C939.913301 710.803362 953.650543 697.060429 953.650543 680.107665 953.650543 663.154901 939.913301 649.411977 922.967552 649.411977 906.021803 649.411977 892.284561 663.154901 892.284561 680.107665 892.284561 697.060429 906.021803 710.803362 922.967552 710.803362L922.967552 710.803362 922.967552 710.803362ZM922.967552 873.155695C939.913301 873.155695 953.650543 859.412762 953.650543 842.459998 953.650543 825.507234 939.913301 811.764301 922.967552 811.764301 906.021803 811.764301 892.284561 825.507234 892.284561 842.459998 892.284561 859.412762 906.021803 873.155695 922.967552 873.155695L922.967552 873.155695 922.967552 873.155695ZM923.402692 554.032068C940.348442 554.032068 954.085683 540.289143 954.085683 523.336371 954.085683 506.383607 940.348442 492.640674 923.402692 492.640674 906.456943 492.640674 892.719701 506.383607 892.719701 523.336371 892.719701 540.289143 906.456943 554.032068 923.402692 554.032068L923.402692 554.032068 923.402692 554.032068Z" p-id="2094" fill="#f7941d"></path></svg>