<?xml version="1.0" standalone="no"?><!DOCTYPE svg PUBLIC "-//W3C//DTD SVG 1.1//EN" "http://www.w3.org/Graphics/SVG/1.1/DTD/svg11.dtd"><svg t="1482410486269" class="icon" style="" viewBox="0 0 1024 1024" version="1.1" xmlns="http://www.w3.org/2000/svg" p-id="996" xmlns:xlink="http://www.w3.org/1999/xlink" width="48" height="48"><defs><style type="text/css"></style></defs><path d="M499.072 676.48l299.84-309.44a24.96 24.96 0 1 0-35.872-34.752l-281.568 293.184-164.864-151.52a24.96 24.96 0 1 0-33.792 36.768l181.44 166.752a24.96 24.96 0 0 0 34.816-0.992zM512 0C229.216 0 0 229.216 0 512s229.216 512 512 512c117.44 0 228.8-39.68 318.784-111.328a24.96 24.96 0 0 0-31.136-39.04A459.904 459.904 0 0 1 512 974.016C256.832 974.048 49.952 767.168 49.952 512S256.832 49.952 512 49.952 974.048 256.832 974.048 512c0 87.488-24.32 171.328-69.568 243.968a24.96 24.96 0 1 0 42.4 26.4A509.664 509.664 0 0 0 1024 512c0-282.784-229.216-512-512-512z" fill="#1DC11D" p-id="997"></path></svg>